# xmcd
#
# Track frame offsets:
#	150
#	19294
#	36004
#	51069
#	68010
#	84053
#	99069
#	114669
#	129280
#	143789
#	160529
#	181129
#
# Disc length: 2571 seconds
#
# Revision: 1
# Processed by: cddbd v1.5.2PL0 Copyright (c) Steve Scherf et al.
# Submitted via: EZCDAudioConverter 7.1.5.1
#
DISCID=850a090c
DTITLE=Kim Richey - Edgeland
DYEAR=2018
DGENRE=Country
TTITLE0=The Red Line
TTITLE1=Chase Wild Horses
TTITLE2=Leaving Song
TTITLE3=Pin A Rose
TTITLE4=High Time
TTITLE5=The Get Together
TTITLE6=I Can't Let You Go
TTITLE7=I Tried
TTITLE8=Black Trees
TTITLE9=Your Dear John
TTITLE10=Not For Money Or Love
TTITLE11=Whistle On Occasion
EXTD=
EXTT0=
EXTT1=
EXTT2=
EXTT3=
EXTT4=
EXTT5=
EXTT6=
EXTT7=
EXTT8=
EXTT9=
EXTT10=
EXTT11=
PLAYORDER=
